<?xml version="1.0" encoding="utf-8"?>
<!-- Generator: Adobe Illustrator 18.0.0, SVG Export Plug-In . SVG Version: 6.00 Build 0)  -->
<!DOCTYPE svg PUBLIC "-//W3C//DTD SVG 1.1//EN" "http://www.w3.org/Graphics/SVG/1.1/DTD/svg11.dtd">
<svg version="1.1" id="Layer_1" xmlns="http://www.w3.org/2000/svg" xmlns:xlink="http://www.w3.org/1999/xlink" x="0px" y="0px"
	 viewBox="-0.1 78.8 612.1 634.4" enable-background="new -0.1 78.8 612.1 634.4" xml:space="preserve">
<g>
	<path fill="#24140C" d="M574.1,532.3c24.1-43.7,37.9-94.1,37.9-147.5c0-169-137-306-306-306S0.2,215.8,0.2,384.8
		c0,53.6,13.8,103.7,37.9,147.5H574.1z"/>
	<path fill="#24140C" d="M41.7,272.6v41.9H27.2c4,6.1,7.8,12.4,11.2,19c33.9,67.1,6.1,134.1-24.9,197.5c-1.4,2.9-2.8,5.7-4,8.4
		c-5.5,10-8.9,21.2-9.5,33.3c-2.3,44.4,33.3,82.3,79.8,84.7c35,1.8,66-17,80.1-45.4c17-28.2,19.9-68,21.6-101.1
		C187.4,404.9,125.5,320.7,41.7,272.6z"/>
	<polygon fill="#24140C" points="317.7,354.1 611.9,388.8 611.9,657.5 317.7,657.5 	"/>
	<rect x="0" y="373.9" fill="#24140C" width="292.8" height="197"/>
	<circle fill="#F9C68F" cx="306" cy="509.9" r="203.3"/>
	<rect x="102.7" y="383.6" fill="#F9C68F" width="406.7" height="128.1"/>
	<ellipse fill="#F9C68F" cx="306" cy="385.6" rx="203.3" ry="191.5"/>
	<path fill="#AF7266" d="M229.1,596.7c19.6,22.6,46.8,36.6,76.9,36.6s57.3-14,76.9-36.6H229.1z"/>
	<path fill="#87403A" d="M382.7,596.7c-19.6-13.4-46.8-22-76.9-22s-57.3,8.4-76.9,22H382.7z"/>
	<ellipse fill="#F9C68F" cx="306" cy="567.8" rx="13" ry="14"/>
	<path fill="#DBAB77" d="M303.4,549.7c18.7,0,33.9-10.3,33.9-23.1h-67.7C269.5,539.5,284.6,549.7,303.4,549.7z"/>
	<rect x="28.7" y="289.3" fill="#24140C" width="73.4" height="224.5"/>
	<g>
		<circle fill="#281A0E" cx="212.9" cy="392" r="27.4"/>
		<path stroke="#000000" stroke-width="11" stroke-linecap="round" stroke-linejoin="round" stroke-miterlimit="10" d="M130.8,385.9
			c0.8,3.3,2.5,6.3,7.3,8c9,3.3,15.9,0.8,23.6-5.8c17.8-15.6,38.5-28.8,63-23.5s42.5,24.6,47.5,47.6v0.4
			c-5.9-19.6-21.9-35.5-43.3-40.1c-22.9-5-41.7,8.1-59,21.9c-7.9,6.3-13.7,10.2-22.3,8.3C138.9,401,132.6,394.1,130.8,385.9
			L130.8,385.9z"/>
		<circle fill="#281A0E" cx="392.1" cy="392" r="27.4"/>
		<path stroke="#000000" stroke-width="11" stroke-linecap="round" stroke-linejoin="round" stroke-miterlimit="10" d="M474.2,385.9
			c-1.8,8.1-8.1,15-16.7,16.8c-8.7,1.9-14.5-1.9-22.3-8.3c-17.4-13.8-36.1-26.9-59-21.9c-21.4,4.7-37.4,20.6-43.3,40.1v-0.4
			c5-23,22.9-42.2,47.5-47.6s45.3,7.9,63,23.5c7.7,6.6,14.6,9.1,23.6,5.8C471.7,392.3,473.4,389.2,474.2,385.9L474.2,385.9z"/>
	</g>
	<g>
		<path fill="#24140C" d="M461.1,578.5c-10.7-0.3-20.7-2.9-29.6-15.7c-16.3-23.6-14.1-45.3,0.6-72c34.2-62,58.9-130.6,24.9-197.7
			S352.2,187.4,279.1,188.5l-1.1,0.3c63.2,3.7,122.6,39.1,152.2,97.6c31.8,62.8,5.8,125.5-23.3,184.9c-13.4,27.2-16,46.2-3.8,70
			C415.1,565.1,435.2,578.8,461.1,578.5L461.1,578.5z"/>
		<g>
			<path fill="#24140C" d="M454.9,292.1c34.1,67.4,9.4,136.3-25,198.4c-14.7,26.9-16.9,48.5-0.6,72.3c2.3,3.2,14.7,12.3,17.2,14.4
				c107.3,23.2,114.6-63.1,117.9-124.6c8-152.1-132.3-256.4-267.6-264.6C360.8,195,424.8,232.4,454.9,292.1z"/>
		</g>
		
			<ellipse transform="matrix(-5.282557e-02 0.9986 -0.9986 -5.282557e-02 1011.7412 69.3335)" fill="#24140C" cx="473" cy="514.5" rx="75.2" ry="78.7"/>
	</g>
	<rect x="299.4" y="78.8" fill="#F9C68F" width="8.9" height="117.4"/>
</g>
</svg>
